<svg width="1036" height="612" xmlns="http://www.w3.org/2000/svg" xmlns:xlink="http://www.w3.org/1999/xlink">
 <defs>
  <linearGradient y2="-0.00003" x2="0.5" y1="1.00005" x1="0.5" id="deacd444-d5db-4c24-9492-02e57292be3c">
   <stop stop-opacity="0.25" stop-color="gray" offset="0"/>
   <stop stop-opacity="0.12" stop-color="gray" offset="0.54"/>
   <stop stop-opacity="0.1" stop-color="gray" offset="1"/>
  </linearGradient>
  <linearGradient xlink:href="#deacd444-d5db-4c24-9492-02e57292be3c" y2="301.65" x2="473.94" y1="635.65" x1="473.94" id="a1de9c2c-a914-4f57-a703-6b671b828453"/>
  <linearGradient xlink:href="#deacd444-d5db-4c24-9492-02e57292be3c" y2="401.65" x2="363.44" y1="662.65" x1="363.44" id="33ead0d0-8f65-4117-bca2-44ecb419ecb0"/>
  <linearGradient xlink:href="#deacd444-d5db-4c24-9492-02e57292be3c" y2="385.5" x2="849.68" y1="703.66" x1="849.68" id="9a5964b5-9011-4675-8f60-8033350848c0"/>
 </defs>
 <title>web_devices</title>
 <g>
  <title>background</title>
  <rect fill="none" id="canvas_background" height="602" width="802" y="-1" x="-1"/>
 </g>
 <g>
  <title>Layer 1</title>
  <path id="svg_1" opacity="0.2" fill="#6c63ff" d="m151.4,0.07c-8.06,-0.23 -16.32,0 -23.88,2.32c-20.57,6.32 -30.32,27 -27.15,44.87s16.21,33.44 29.74,47.67s28.19,28.3 35.61,45.31c3.7,8.49 5.43,18 1.67,26.48c-5.8,13.07 -23.29,20.37 -40.08,21.89s-33.65,-1.44 -50.5,-2.43c-7.07,-0.41 -14.34,-0.46 -21,1.45c-7.31,2.08 -13.4,6.33 -19,10.76c-21.85,17.38 -39.34,41.09 -36.51,66c3.2,28.23 31.74,50.54 63,62.51c10.35,4 21.3,7.18 30.41,12.84c24,14.93 29.39,42.93 27,67.64s-10.53,49.45 -6,73.94c5.33,28.49 28.92,54.23 60.74,66.25c28.35,10.71 63.83,10 89,-5.11c12.27,-7.38 21.55,-17.63 29.62,-28.23a227.74,227.74 0 0 0 29.45,-51c3.51,-8.49 6.81,-17.62 15,-23.52c5,-3.63 11.48,-5.66 17.89,-7.24c19.32,-4.76 39.67,-6.06 59.17,-10.3s39.12,-12.17 49.72,-26.27c15,-20 8,-45.62 8.07,-69.14c0.12,-53.66 39.11,-101.69 53.5,-154c4.7,-17.09 6.45,-36 -4.05,-51.25c-7.13,-10.35 -19.16,-17.82 -31.8,-23.59c-27.81,-12.69 -59.42,-18.34 -90.51,-23.84c-43.21,-7.64 -95.68,-8.63 -129.17,-33.35c-32.14,-23.73 -76.11,-40.66 -119.94,-40.66z"/>
  <ellipse id="svg_2" fill="none" ry="124.52" rx="465" cy="487.48" cx="571"/>
  <path id="svg_3" fill="#6c63ff" d="m957.18,186.86s-35.83,35.83 -15.6,89s-34.68,141.59 -34.68,141.59s0.59,-0.09 1.68,-0.28c73.59,-13 110.16,-97.16 69.24,-159.69c-15.21,-23.24 -27.7,-50.48 -20.64,-70.62z"/>
  <path id="svg_4" stroke-width="2" stroke-miterlimit="10" stroke="#535461" fill="none" d="m957.18,186.86s-20.23,43.92 0,79.75s3.47,136.39 -50.28,150.84"/>
  <path id="svg_5" fill="#6c63ff" d="m1021,331.79s-40.89,-6.51 -44.61,30.13s-78.62,41.72 -78.62,41.72l1.4,0.93c61.84,40.59 121,25.86 112,-28c-3.27,-20.08 -3,-40.21 9.83,-44.78z"/>
  <path id="svg_6" opacity="0.2" fill="#f5f5f5" d="m1021,331.79s-40.89,-6.51 -44.61,30.13s-78.62,41.72 -78.62,41.72l1.4,0.93c61.84,40.59 121,25.86 112,-28c-3.27,-20.08 -3,-40.21 9.83,-44.78z"/>
  <path id="svg_7" stroke-width="2" stroke-miterlimit="10" stroke="#535461" fill="none" d="m1021,331.79s-31.74,7 -29.13,35.82s-47.13,63.45 -94.1,36"/>
  <path id="svg_8" fill="url(#deacd444-d5db-4c24-9492-02e57292be3c)" d="m926.37,419.92l-64.24,0a21.42,21.42 0 0 0 2.24,-9.57l0,-292.56a21.51,21.51 0 0 0 -21.51,-21.51l-497.34,0a21.51,21.51 0 0 0 -21.52,21.51l0,292.57a21.42,21.42 0 0 0 2.24,9.57l-66.51,0a5.69,5.69 0 0 0 -5.69,5.69l0,4.59a31.82,31.82 0 0 0 31.82,31.79l614.38,0a31.82,31.82 0 0 0 31.82,-31.82l0,-4.59a5.69,5.69 0 0 0 -5.69,-5.67zm-395.89,18.2l-5.48,-6.25l136.72,0l-6.1,6.26l-125.14,-0.01z"/>
  <rect id="svg_9" fill="#535461" ry="23.26" rx="23.26" height="327.99" width="528.12" y="100.42" x="330.11"/>
  <rect id="svg_10" fill="#fff" height="267.95" width="504.77" y="148.23" x="341.22"/>
  <circle id="svg_11" fill="#fff" r="4.45" cy="124.88" cx="593.61"/>
  <path id="svg_12" fill="#535461" d="m671.55,416.73l-17.35,17.79l-122.3,0l-15.67,-17.79l-248.94,0a5.56,5.56 0 0 0 -5.56,5.56l0,4.48a31.1,31.1 0 0 0 31.1,31.1l600.45,0a31.1,31.1 0 0 0 31.1,-31.1l0,-4.48a5.56,5.56 0 0 0 -5.56,-5.56l-247.27,0z"/>
  <path id="svg_13" fill="url(#a1de9c2c-a914-4f57-a703-6b671b828453)" d="m498.41,157.65l-212.93,0a19.51,19.51 0 0 0 -19.53,19.48l0,295a19.51,19.51 0 0 0 19.53,19.48l212.93,0a19.51,19.51 0 0 0 19.53,-19.48l0,-295a19.51,19.51 0 0 0 -19.53,-19.48z"/>
  <rect id="svg_14" fill="#535461" ry="20" rx="20" height="327" width="246" y="161.65" x="268.94"/>
  <rect id="svg_15" fill="#fff" height="265.14" width="221" y="192.58" x="281.44"/>
  <circle id="svg_16" fill="#fff" r="3" cy="176.65" cx="390.94"/>
  <circle id="svg_17" fill="#fff" r="9" cy="472.65" cx="390.94"/>
  <path id="svg_18" fill="url(#33ead0d0-8f65-4117-bca2-44ecb419ecb0)" d="m336.11,257.65l-109.33,0a10.81,10.81 0 0 0 -10.83,10.79l0,239.42a10.81,10.81 0 0 0 10.83,10.79l109.33,0a10.81,10.81 0 0 0 10.83,-10.79l0,-239.42a10.81,10.81 0 0 0 -10.83,-10.79z"/>
  <rect id="svg_19" fill="#535461" ry="11" rx="11" height="258" width="129" y="259.65" x="216.94"/>
  <rect id="svg_20" fill="#fff" height="210" width="110" y="283.65" x="226.44"/>
  <circle id="svg_21" fill="#fff" r="1" cy="271.65" cx="268.44"/>
  <rect id="svg_22" fill="#fff" ry="1" rx="1" height="2" width="22" y="270.65" x="273.44"/>
  <circle id="svg_23" fill="#fff" r="7" cy="503.65" cx="280.94"/>
  <path id="svg_24" stroke-width="2" stroke-miterlimit="10" stroke="#535461" fill="none" d="m203.73,536.25s-13.26,-45 2.49,-78.14a71.09,71.09 0 0 0 5.78,-44.61a119.57,119.57 0 0 0 -6.31,-20.93"/>
  <path id="svg_25" fill="#6c63ff" d="m215.45,371.63c0,5.52 -10,21.51 -10,21.51s-10,-16 -10,-21.51a10,10 0 0 1 20,0z"/>
  <path id="svg_26" fill="#6c63ff" d="m232,402.19c-3,4.63 -20.08,12.63 -20.08,12.63s0.31,-18.86 3.31,-23.49a10,10 0 1 1 16.77,10.86z"/>
  <path id="svg_27" fill="#6c63ff" d="m231.24,454.4c-4.93,2.48 -23.71,0.77 -23.71,0.77s9.79,-16.12 14.71,-18.6a10,10 0 0 1 9,17.84l0,-0.01z"/>
  <path id="svg_28" fill="#6c63ff" d="m221.8,493.79c-4.44,3.28 -23.24,4.76 -23.24,4.76s6.92,-17.54 11.36,-20.82a10,10 0 0 1 11.88,16.06z"/>
  <path id="svg_29" fill="#6c63ff" d="m190.91,415.89c4,3.84 22.39,7.83 22.39,7.83s-4.51,-18.31 -8.47,-22.15a10,10 0 1 0 -13.92,14.33l0,-0.01z"/>
  <path id="svg_30" fill="#6c63ff" d="m180.45,462.09c4.93,2.48 23.71,0.77 23.71,0.77s-9.79,-16.12 -14.71,-18.6a10,10 0 1 0 -9,17.84l0,-0.01z"/>
  <path id="svg_31" fill="#6c63ff" d="m176.45,508.39c4.44,3.28 23.24,4.76 23.24,4.76s-6.92,-17.54 -11.36,-20.82a10,10 0 0 0 -11.88,16.06z"/>
  <path id="svg_32" fill="url(#9a5964b5-9011-4675-8f60-8033350848c0)" d="m995,393.1c-11.07,-13.43 -24.48,-28.86 -22.6,-46.73c1.52,-14.47 -2.12,-27.85 -1.4,-42.37c1,-20.63 -3.14,-36.78 -18,-50c-8.68,-7.73 -23.19,-13.8 -27.51,-12.25c-8.56,3.06 -17.9,1.89 -26.71,4c-6.69,1.56 -11.14,4 -13.9,7c-5.55,5 -5.64,12 -3.11,19.45a32.85,32.85 0 0 0 16.23,46.08c-6.17,2.58 -11.5,8.52 -13.58,20.58a140.68,140.68 0 0 1 -6.53,24.31a39.51,39.51 0 0 1 -4,1.61c0.3,0.12 0.61,0.2 0.91,0.31c-0.65,0.25 -1.29,0.5 -2,0.72a21.21,21.21 0 0 0 3.65,1.06c-8,20.21 -18,32.73 -18,32.73s-18.65,4.12 -25.9,-3.09c0,0 1.18,1.38 2.78,3.45c-7.09,-2.94 -18.73,-7.74 -28.68,-11.69c-7.22,-2.87 -9.07,0 -9,4a13.32,13.32 0 0 0 -5,1.68a48.67,48.67 0 0 0 -6.69,-3.6c-4.14,-1 -17.61,-8.24 -31.08,16.47c-7.84,14.37 -27.94,40.6 -43.39,60c-30.05,13.82 -69.17,31.32 -83.71,35.72l-9.32,0c-1.22,-2 -2.07,-3.26 -2.07,-3.26l-0.72,0.48l-0.31,-0.48s-18.3,12.67 -36.88,12.77a35,35 0 0 1 -7.84,-1c-8.54,-2.15 -14.56,-3.11 -18.86,-3c-5.09,-0.09 -8,1.12 -9.76,3.4l0,0a8.94,8.94 0 0 0 -0.65,0.94l0,0a11.05,11.05 0 0 0 -0.54,1l0,0c-0.16,0.36 -0.32,0.74 -0.46,1.13a2.32,2.32 0 0 0 0.58,1.95a10.42,10.42 0 0 0 0.81,1l0.52,0.56c2.34,2.42 6.6,5.63 11.9,9.21c1.53,1 3.15,2.1 4.84,3.19l3.21,2l2.87,1.79l1.15,0.71l1.28,0.78l2.29,1.39l1.36,0.82l2.57,1.53l2.08,1.23c5.44,3.21 10.86,6.32 15.75,9.08l3.42,2.04l0.33,0.18l2.2,1.23l3.8,2.11l2.61,1.44l1.22,0.67l1.31,0.72l0.26,0.14l2.28,1.24a3.3,3.3 0 0 0 2.66,-0.72c0.66,-2.8 2.27,-8.8 4,-9.26s9.22,-13.55 11.33,-22.31l20.22,0a89.13,89.13 0 0 0 11.84,-1.82c-5.22,3.72 -10.39,6.06 -14.41,5.06c-8.5,-2.11 -16.55,3.07 -17.36,8.18c0,0.11 -0.07,0.21 -0.1,0.32s-0.05,0.21 -0.07,0.31s-0.06,0.25 -0.08,0.38s0,0.21 0,0.32s0,0.25 0,0.38s0,0.21 0,0.31s0,0.26 0,0.39s0,0.2 0,0.3s0.06,0.27 0.1,0.41s0,0.18 0.07,0.26a5,5 0 0 0 0.22,0.53l0.05,0.13a5.38,5.38 0 0 0 0.38,0.63l0.16,0.21c0.1,0.14 0.21,0.28 0.33,0.41l0.23,0.23c0.12,0.12 0.25,0.24 0.38,0.36l0.28,0.23l0.45,0.33l0.33,0.22l0.54,0.32l0.36,0.19l0.68,0.32l0.34,0.15c0.36,0.15 0.74,0.29 1.15,0.42c0.65,0.21 1.42,0.43 2.29,0.65l0.87,0.21l1.27,0.29l0.67,0.15q1.3,0.28 2.76,0.56l1.35,0.25l1.1,0.2l2.53,0.44c1.58,0.27 3.23,0.54 5,0.8l4.36,0.66l5.68,0.81l1.26,0.17l2,0.28l2.93,0.39l2,0.26l0,0l5.19,0.66l1.62,0.2l3.27,0.4c4.3,0.52 8.46,1 12.29,1.43l4.43,0.5l2.24,0.25l1,0.1l2.68,0.29l1.49,0.16l1.84,0.19l2.59,0.27l0.28,0l1.66,0.17l0,0a1.51,1.51 0 0 0 1.67,-1.47l0,0l0,0c0,-0.05 0,-0.11 0,-0.17a1.46,1.46 0 0 0 0.24,-0.78a34,34 0 0 1 0.93,-7.32c0.11,-0.41 0.24,-0.83 0.38,-1.25l0.16,-0.48c0.18,-0.51 0.36,-1 0.57,-1.55a11.12,11.12 0 0 0 0.39,-1.14c0,-0.12 0.07,-0.24 0.11,-0.37s0.1,-0.41 0.14,-0.62c2.08,-7.11 -0.43,-20.37 -1.15,-25.58a27.77,27.77 0 0 0 -1.14,-4.9a2,2 0 0 0 0.39,0a11.79,11.79 0 0 0 3,-1.63c15.28,-5.45 28.16,-11.68 32.23,-17.92a27.91,27.91 0 0 1 19.68,2.06c7.91,3.93 67.75,23.46 95.61,32.48c5,4.31 8.92,6.83 11.09,6.64c0,0 35.47,5.74 49.73,-5.46c1.27,0.88 2.07,1.35 2.07,1.35s20.72,-10.29 23.83,-23.68c1,-4.34 1.91,-10.74 2.84,-17.82a25.91,25.91 0 0 0 7.52,-18.21c0.65,-22.48 9.36,-48.16 15.82,-71c7.84,0.62 10.87,-0.86 18.06,-4.41l-0.32,-0.41c0.51,-0.3 0.96,-0.5 1.41,-0.72zm-118.79,33.67l-4,-1.33a33,33 0 0 0 3.45,-5.74l0.55,7.07zm-22.29,9.46l24,14.4l0.21,2.93a21,21 0 0 0 0.2,6.7c-10.58,-9.4 -22.96,-20.81 -24.42,-24.04l0.01,0.01zm-9.8,-21c-2.62,-1.08 -4.79,-2.06 -6.28,-2.87c2,0.14 3.9,0.26 5.56,0.35a12.44,12.44 0 0 1 0.72,2.52zm-64.28,23.47s4.14,-9.26 13.47,6.18c1.45,2.4 4.12,6.22 7.65,10.95l-27.16,-3.63c3.2,-4.96 5.35,-9.57 6.04,-13.49l0,-0.01z"/>
  <path id="svg_33" fill="#f7c4a7" d="m839.5,401.5s-19,-8 -34,-14s-6,14 -6,14s25,7 25,8s21,2 21,2l-6,-10z"/>
  <path id="svg_34" opacity="0.05" d="m839.5,401.5s-19,-8 -34,-14s-6,14 -6,14s25,7 25,8s21,2 21,2l-6,-10z"/>
  <path id="svg_35" fill="#575988" d="m920.5,322.5s-34,-18 -40,17s-25,59 -25,59s-18,4 -25,-3c0,0 17,20 9,22c0,0 18,13 26,9s14,-31 17,-38s14,-68 38,-66z"/>
  <path id="svg_36" opacity="0.1" d="m920.5,322.5s-34,-18 -40,17s-25,59 -25,59s-18,4 -25,-3c0,0 17,20 9,22c0,0 18,13 26,9s14,-31 17,-38s14,-68 38,-66z"/>
  <path id="svg_37" fill="#f7c4a7" d="m901.5,310.5s21,24 22,44s24,-21 26,-22s-20,-35 -22,-46s-26,24 -26,24z"/>
  <polygon id="svg_38" fill="#f7c4a7" points="916 320.75 902.75 332.75 909 358 926 342 924 326 916 320.75"/>
  <polygon id="svg_39" fill="#f7c4a7" points="639.5 498.5 616.5 498.5 625.5 520.5 647.5 514.5 639.5 498.5"/>
  <path id="svg_40" opacity="0.1" d="m621.82,495.33s-23.82,16.59 -44.17,11.43s-25.88,-3.23 -28.25,3.43c-2.19,6.13 56.84,38.55 66.25,43.67a1.08,1.08 0 0 0 1.57,-0.7c0.64,-2.72 2.19,-8.55 3.85,-9c2.16,-0.58 12,-19 11.46,-26.24s-10.71,-22.59 -10.71,-22.59z"/>
  <path id="svg_41" fill="#f3b5b7" d="m620.82,495.33s-23.82,16.59 -44.17,11.43s-25.88,-3.23 -28.25,3.43c-2.19,6.13 56.84,38.55 66.25,43.67a1.08,1.08 0 0 0 1.57,-0.7c0.64,-2.72 2.19,-8.55 3.85,-9c2.16,-0.58 12,-19 11.46,-26.24s-10.71,-22.59 -10.71,-22.59z"/>
  <path id="svg_42" fill="#575988" d="m817.5,455.5l-67,-9s-109,52 -122,53l3,23l20,0c8,0 86,-17 97,-34a26.78,26.78 0 0 1 19,2c10,5 106,36 106,36l-56,-71z"/>
  <path id="svg_43" opacity="0.1" d="m817.5,455.5l-67,-9s-109,52 -122,53l3,23l20,0c8,0 86,-17 97,-34a26.78,26.78 0 0 1 19,2c10,5 106,36 106,36l-56,-71z"/>
  <polygon id="svg_44" fill="#f7c4a7" points="698.5 486.5 687.5 500.5 698.5 506.5 714.5 494.5 698.5 486.5"/>
  <path id="svg_45" fill="#575988" d="m889.5,470.5s-36,-30.82 -38.49,-36.41s-61.51,-43.59 -65.51,-44.59s-17,-8 -30,16s-61,82 -61,82s15,21 20,20s61,-48 65,-71c0,0 4,-9 13,6s67,87 78,86c0,0 43,7 52,-10s-33,-48 -33,-48z"/>
  <path id="svg_46" fill="#dddbe2" d="m910,324s-12.5,5.5 -13.5,28.5s-23,62 -23,62l2,46s24,24 26,39s19,25 19,25s20,-10 23,-23s5,-45 10,-57s2,-87 2,-87l-15,-26l-8,-9l-21,24s-11.5,-15.5 -1.5,-22.5z"/>
  <path id="svg_47" opacity="0.1" d="m880.5,445.5s-3,-36 6,-44l18,-51s6.5,-24.5 5.5,-26.5s-23.5,19.5 -23.5,19.5l-15,53l4,56l5,-7z"/>
  <path id="svg_48" fill="#575988" d="m879.5,445.5s-3,-36 6,-44l18,-51s7,-25 6,-27s-24,20 -24,20l-15,53l4,56l5,-7z"/>
  <path id="svg_49" fill="#f7c4a7" d="m886.5,429.5s-50,-16 -53,-20s-35,-30 -46,-12s41,23 41,23l53,32l5,-23z"/>
  <path id="svg_50" opacity="0.1" d="m700.67,500.41l-14.8,-2.66s-24.24,31.05 -36.87,27.9s-24.25,10.44 -10.91,14.8c12.05,3.94 64.09,9.45 74,10.47a1.46,1.46 0 0 0 1.61,-1.42a31.84,31.84 0 0 1 2.3,-11.27c2.67,-6.55 0,-20.62 -0.74,-26a25.83,25.83 0 0 0 -2.91,-9l-11.68,-2.82z"/>
  <path id="svg_51" fill="#f3b5b7" d="m700.42,501.38l-14.8,-2.66s-24.24,31.05 -36.85,27.91s-24.25,10.44 -10.91,14.8c12.05,3.94 64.09,9.45 74,10.47a1.46,1.46 0 0 0 1.61,-1.42a31.84,31.84 0 0 1 2.21,-11.26c2.67,-6.55 0,-20.62 -0.74,-26a25.83,25.83 0 0 0 -2.91,-9l-11.61,-2.84z"/>
  <circle id="svg_52" opacity="0.1" r="32" cy="290" cx="909"/>
  <circle id="svg_53" fill="#f7c4a7" r="32" cy="290" cx="906"/>
  <path id="svg_54" fill="#575988" d="m937.5,321.5s38,13 38,40s-21,70 -22,105s-56,30 -56,30s-8,-118 0,-127s44,-44 40,-48z"/>
  <path id="svg_55" opacity="0.1" d="m930.5,377.5s-14,62 -47,51c0,0 -17,25 -5,36c0,0 29,7 48,-12s33,-26 36,-49s5,-55 -5,-52s-27,26 -27,26z"/>
  <path id="svg_56" fill="#575988" d="m931.5,376.5s-14,62 -47,51c0,0 -17,25 -5,36c0,0 29,7 48,-12s33,-26 36,-49s5,-55 -5,-52s-27,26 -27,26z"/>
  <path id="svg_57" fill="#dddbe2" d="m716.54,536c0,0.09 -0.06,0.2 -0.09,0.28a29.28,29.28 0 0 0 -1.57,5.29c0.24,-0.78 0.52,-1.58 0.84,-2.38a14.52,14.52 0 0 0 0.82,-3.19z"/>
  <path id="svg_58" fill="#dddbe2" d="m638.59,538.51c-4.12,-1.35 -5.85,-3.57 -5.92,-5.91c-1.7,3.26 -0.63,6.92 5.19,8.82c12.05,3.94 64.1,9.45 74,10.47a1.46,1.46 0 0 0 1.61,-1.43l0,0a1.47,1.47 0 0 0 -1.31,-1.49c-10.86,-1.16 -61.68,-6.58 -73.57,-10.46z"/>
  <path id="svg_59" fill="#dddbe2" d="m549.78,508.43a12.32,12.32 0 0 1 1,-2.12a9.75,9.75 0 0 0 -2.35,3.88c-2.19,6.13 56.84,38.55 66.25,43.67a1.08,1.08 0 0 0 1.57,-0.71l0,0a1.08,1.08 0 0 0 -0.53,-1.2c-10.4,-5.69 -68.1,-37.46 -65.94,-43.52z"/>
  <path id="svg_60" fill="#dddbe2" d="m621.44,542.41c-0.53,0.14 -1.05,0.85 -1.54,1.82l0.16,-0.06c0.44,-0.12 1.19,-1 2.1,-2.3a1.94,1.94 0 0 1 -0.72,0.54z"/>
  <path id="svg_61" opacity="0.1" d="m901.56,318.17c-2.82,6.22 -3.41,13.23 -5.48,19.75c-4.11,12.93 -14.42,23.63 -26.77,27.76c10.39,4.14 22.65,-0.92 30.68,-9.32s12.74,-19.58 17.25,-30.46c11.66,7.84 10.24,25.86 14.16,39.89a44.24,44.24 0 0 0 23.55,28.15a42.17,42.17 0 0 0 36.07,-0.73c-10.69,-13 -25.91,-30.93 -24.1,-48.29c1.47,-14.06 -8.62,-24.8 -7.93,-38.91c1,-20 -6.66,-30.16 -21,-43c-8.38,-7.51 4.81,-18.1 -6,-15c-4.25,1.22 -8.73,-3.33 -12.9,-1.83c-8.26,3 -17.28,1.84 -25.78,3.84c-44.18,10.38 12.37,59.07 8.25,68.15z"/>
  <path id="svg_62" fill="#fc6681" d="m902.56,317.17c-2.82,6.22 -3.41,13.23 -5.48,19.75c-4.11,12.93 -14.42,23.63 -26.77,27.76c10.39,4.14 22.65,-0.92 30.68,-9.32s12.74,-19.58 17.25,-30.46c11.66,7.84 10.24,25.86 14.16,39.89a44.24,44.24 0 0 0 23.55,28.15a42.17,42.17 0 0 0 36.07,-0.73c-10.69,-13 -24.91,-27.93 -23.1,-45.29c1.47,-14.06 -0.72,-28.51 0,-42.61c1,-20 -8.81,-39.32 -23.16,-52.16c-8.38,-7.51 -21.47,-8.47 -25.65,-7c-8.26,3 -17.28,1.84 -25.78,3.84c-44.2,10.41 12.35,59.1 8.23,68.18z"/>
 </g>
</svg>